<svg width="20" height="20" viewBox="0 0 20 20" fill="none" xmlns="http://www.w3.org/2000/svg">
<path d="M18.75 2.13375L17.8663 1.25L1.25 17.8663L2.13375 18.75L3.38375 17.5H16.25C16.5814 17.4995 16.899 17.3676 17.1333 17.1333C17.3676 16.899 17.4995 16.5814 17.5 16.25V3.38375L18.75 2.13375ZM16.25 16.25H4.63375L9.50437 11.3794L10.9913 12.8663C11.2257 13.1006 11.5435 13.2322 11.875 13.2322C12.2065 13.2322 12.5243 13.1006 12.7587 12.8663L13.75 11.875L16.25 14.3731V16.25ZM16.25 12.605L14.6337 10.9888C14.3993 10.7544 14.0815 10.6228 13.75 10.6228C13.4185 10.6228 13.1007 10.7544 12.8663 10.9888L11.875 11.98L10.3894 10.4944L16.25 4.63375V12.605Z" fill="#6E6893"/>
<path d="M3.75 13.75V11.875L6.875 8.75187L7.73313 9.61062L8.61812 8.72563L7.75875 7.86625C7.52434 7.63191 7.20646 7.50027 6.875 7.50027C6.54354 7.50027 6.22566 7.63191 5.99125 7.86625L3.75 10.1075V3.75H13.75V2.5H3.75C3.41858 2.50033 3.10083 2.63213 2.86648 2.86648C2.63213 3.10083 2.50033 3.41858 2.5 3.75V13.75H3.75Z" fill="#6E6893"/>
</svg>
